<svg xmlns="http://www.w3.org/2000/svg" version="1.1" xmlns:xlink="http://www.w3.org/1999/xlink" xmlns:svgjs="http://svgjs.dev/svgjs" width="1000" height="1125" viewBox="0 0 1000 1125"><g transform="matrix(1,0,0,1,1.7053025658242404e-13,0)"><svg viewBox="0 0 320 360" data-background-color="#ffffff" preserveAspectRatio="xMidYMid meet" height="1125" width="1000" xmlns="http://www.w3.org/2000/svg" xmlns:xlink="http://www.w3.org/1999/xlink"><defs></defs><g id="tight-bounds" transform="matrix(1,0,0,1,0,0)"><svg viewBox="0 0 320 360" height="360" width="320"><g><svg></svg></g><g><svg viewBox="0 0 320 360" height="360" width="320"><g><path d="M20.961 227.22l3.726 4.658-1.863-6.056c-0.466-2.795-3.726 0.466-1.863 1.398M25.153 224.425c1.397 2.329 2.795 4.658 2.795 6.987 0 3.261 2.795 4.658 5.123 5.589-3.261-3.726-5.124-13.974-7.918-12.576M204.017 26.929c7.918 0 15.371-0.932 23.756 0.931 20.495 5.124 37.729 15.371 49.374 29.811l32.606 52.169c1.397 13.042 4.192 27.482 3.726 43.319 3.261 0 2.795-4.658 6.521-5.59-3.726 9.316-5.59 20.961-6.521 34.469-2.329-7.453 0-18.632 0.466-24.687-3.261 5.124-5.124 1.397-5.124-0.932 0.466-3.726-1.397-3.261-2.795-4.658-5.124-4.658-8.384-9.782-12.11-17.7 2.329-6.055 2.795-14.905-4.658-19.563-2.329-1.397-5.124-3.726-6.521-7.453-1.863-5.124-5.124-11.179-4.193-19.097 0.466-2.329-6.987 5.124-11.179 1.863-18.166-12.576-36.332-27.016-58.224-39.127-11.645 0-20.029-4.192-24.221-9.316-3.726-4.658-0.932-10.713 4.658-11.179 3.261 0 6.987-0.932 9.782 0.932 0.466-1.863 2.329-4.192 4.657-4.192M157.904 16.215l0.932 0.466c4.658 0.932 6.987 7.453 12.11 5.124 0 3.261 0.466 6.521-0.466 8.85-1.397 3.726-5.59 3.726-8.85 3.726-31.208-1.863-49.374 11.179-68.471 22.358-5.124 3.261-10.713 5.59-14.906 9.782-20.029 18.632-41.921 35.866-47.045 70.335l-4.192 38.195c-0.466 4.192-5.124 8.384-4.192 13.508l3.26 22.824c-3.261-3.261-5.124 0.932-4.192 2.795 0.466 1.397 2.329 6.055 5.124 1.863 3.726 6.987 7.453 20.495 12.576 26.55 15.837 18.632 36.332 35.4 53.101 52.169 4.192-0.932 7.453-0.932 8.384-3.727 1.397 2.795-1.397 5.59-3.726 6.056 7.453 4.658 15.837 8.85 27.016 9.781 14.44 0.932 27.948 3.261 40.524 6.522 6.521-1.863 13.042-2.795 20.029-3.261 2.329 0 3.726-3.726 6.521-4.658l0.466-4.658c2.795 4.192 2.329-1.397 0.466-4.192 3.261 2.795 4.192 5.124 5.589 6.987 0-1.397 3.726-6.521 3.727-0.466l0.931-6.055c1.397-0.932 1.863 5.124 3.261 0.931 1.397-4.192 4.192-0.932 6.987-2.329-0.932 1.863-0.466 5.59 2.794 3.261l3.727-3.261c2.329 5.59 6.055 3.261 7.918 2.329 20.495-13.042 40.99-28.413 60.553-43.784l-0.466 6.055 2.329-7.453c2.329 2.329 4.192 0.466 5.124-0.931 2.795-4.658 6.521-9.316 12.577-13.508-7.453 20.029-16.303 35.866-27.482 48.908l-4.658 5.59c0 3.261-0.932 7.453-4.658 7.918-1.863 0.466-5.59-0.932-8.384 1.863-1.397 1.863 3.261 5.59-0.466 2.795-3.261-2.329-6.521 0-10.248 0.932-2.795 0.932 1.863 3.726 2.795 5.589 0.932 1.863 1.863 3.726 1.398 6.056l-5.124-5.59c-6.055 3.261-9.782 9.316-14.906 13.974-2.329 1.863-1.397 5.124-1.397 7.918-3.261 0-6.987-0.932-8.85 0.932-1.397 1.863-0.932 4.658-0.932 7.453-4.658-0.466-5.124-7.453-9.315-6.056-4.192 0.932-8.85 1.397-12.577 3.727 2.795 5.59-4.658 2.329-3.726 3.26-6.987-4.192-13.042-7.453-20.495-4.658-15.837-5.124-35.4-2.795-49.84-0.931 0-2.329 0.466-4.658-0.466-5.124-0.932 2.329-3.726 1.397-3.26 1.397-8.85-6.055-17.7-9.782-27.016-14.905-8.384 0.932-16.303-3.261-18.632-5.59-6.521-6.055-13.974-2.795-20.029-4.192-13.042-3.261-17.7-16.769-19.098-26.084-0.932-4.658-4.658-6.521-6.055-6.056-6.055-19.563-15.371-37.263-22.824-55.429-1.863-4.658-1.397-9.316-1.397-14.44 2.329 0.932 4.658 0.466 4.192-2.794-2.329-15.371-7.918-27.016-13.974-38.195 3.261-15.837 3.726-34.469 11.179-48.443 6.521-12.576 18.632-19.098 27.016-29.811 2.795-3.726 2.795-8.85 5.59-12.11 9.316-9.316 18.632-19.098 28.879-27.482 4.658-3.726 10.247 0 17.234-1.397 2.329-8.384 11.645-15.837 20.495-13.508 3.726 0.932 11.179-8.85 13.508-9.782 3.726-1.397 1.863 3.726 1.863 6.987 8.85-6.987 20.961-10.713 32.14-14.906" fill="#35185a" data-fill-palette-color="tertiary"></path></g><g transform="matrix(1,0,0,1,64,159.2887624466572)"><svg viewBox="0 0 192 41.42247510668563" height="41.42247510668563" width="192"><g><svg viewBox="0 0 192 41.42247510668563" height="41.42247510668563" width="192"><g><svg viewBox="0 0 192 41.42247510668563" height="41.42247510668563" width="192"><g><svg viewBox="0 0 192 41.42247510668563" height="41.42247510668563" width="192"><g><svg viewBox="0 0 192 41.42247510668563" height="41.42247510668563" width="192"><g transform="matrix(1,0,0,1,0,0)"><svg width="192" viewBox="1.9000000953674316 -35 210.8800048828125 45.5" height="41.42247510668563" data-palette-color="#35185a"><path d="M12.45-25.6L12.45-25.6Q15.05-25.6 19.1-24.8L19.1-24.8 20.45-24.5 20.25-19.2Q16.3-19.6 14.4-19.6L14.4-19.6Q10.95-19.6 9.83-18.13 8.7-16.65 8.7-12.55 8.7-8.45 9.83-6.93 10.95-5.4 14.45-5.4L14.45-5.4 20.25-5.8 20.45-0.45Q15.1 0.6 12.3 0.6L12.3 0.6Q6.75 0.6 4.33-2.53 1.9-5.65 1.9-12.55 1.9-19.45 4.4-22.53 6.9-25.6 12.45-25.6ZM44.55-17.2L44.55-17.2 44.55-6.8Q44.65-5.6 44.95-5.13 45.25-4.65 46.2-4.45L46.2-4.45 46 0.6Q43.45 0.6 41.92 0.25 40.4-0.1 38.85-1.15L38.85-1.15Q35.25 0.6 31.5 0.6L31.5 0.6Q23.75 0.6 23.75-7.6L23.75-7.6Q23.75-11.6 25.9-13.28 28.05-14.95 32.5-15.25L32.5-15.25 37.85-15.65 37.85-17.2Q37.85-18.75 37.15-19.33 36.45-19.9 34.9-19.9L34.9-19.9 25.5-19.5 25.3-24.15Q30.65-25.6 35.47-25.6 40.3-25.6 42.42-23.6 44.55-21.6 44.55-17.2ZM37.85-11L33.3-10.6Q30.5-10.35 30.5-7.6 30.5-4.85 32.95-4.85L32.95-4.85Q34.85-4.85 37.1-5.45L37.1-5.45 37.85-5.65 37.85-11ZM69-24.3L68.89-18.75Q62.7-19.55 60.22-19.55 57.74-19.55 57.02-19.1 56.3-18.65 56.3-17.68 56.3-16.7 57.27-16.32 58.24-15.95 62.27-15.23 66.3-14.5 68-12.85 69.69-11.2 69.69-7.5L69.69-7.5Q69.69 0.6 59.64 0.6L59.64 0.6Q56.34 0.6 51.64-0.3L51.64-0.3 50.05-0.6 50.24-6.2Q56.45-5.4 58.87-5.4 61.3-5.4 62.17-5.88 63.05-6.35 63.05-7.3 63.05-8.25 62.12-8.7 61.2-9.15 57.32-9.8 53.45-10.45 51.55-12 49.64-13.55 49.64-17.53 49.64-21.5 52.34-23.53 55.05-25.55 59.3-25.55L59.3-25.55Q62.24-25.55 67.34-24.6L67.34-24.6 69-24.3ZM93.69-17.2L93.69-17.2 93.69-6.8Q93.79-5.6 94.09-5.13 94.39-4.65 95.34-4.45L95.34-4.45 95.14 0.6Q92.59 0.6 91.07 0.25 89.54-0.1 87.99-1.15L87.99-1.15Q84.39 0.6 80.64 0.6L80.64 0.6Q72.89 0.6 72.89-7.6L72.89-7.6Q72.89-11.6 75.04-13.28 77.19-14.95 81.64-15.25L81.64-15.25 86.99-15.65 86.99-17.2Q86.99-18.75 86.29-19.33 85.59-19.9 84.04-19.9L84.04-19.9 74.64-19.5 74.44-24.15Q79.79-25.6 84.62-25.6 89.44-25.6 91.57-23.6 93.69-21.6 93.69-17.2ZM86.99-11L82.44-10.6Q79.64-10.35 79.64-7.6 79.64-4.85 82.09-4.85L82.09-4.85Q83.99-4.85 86.24-5.45L86.24-5.45 86.99-5.65 86.99-11ZM107.09 0L100.39 0 100.39-35 107.09-35 107.09 0ZM117.44 0L111.29-25 117.89-25 122.44-5.7 123.59-5.7 128.14-25 134.74-25 125.94 10.5 119.39 10.5 122.14 0 117.44 0ZM152.44-25L152.44-19.3 146.29-19.3 146.29-9.05Q146.29-7.55 146.36-6.93 146.44-6.3 146.91-5.85 147.39-5.4 148.39-5.4L148.39-5.4 152.19-5.5 152.49-0.15Q149.14 0.6 147.39 0.6L147.39 0.6Q142.89 0.6 141.24-1.43 139.59-3.45 139.59-8.9L139.59-8.9 139.59-19.3 136.64-19.3 136.64-25 139.59-25 139.59-31.95 146.29-31.95 146.29-25 152.44-25ZM163.48 0L156.78 0 156.78-25 163.48-25 163.48 0ZM163.48-28.2L156.78-28.2 156.78-35 163.48-35 163.48-28.2ZM179.03-25.6L179.03-25.6Q181.63-25.6 185.68-24.8L185.68-24.8 187.03-24.5 186.83-19.2Q182.88-19.6 180.98-19.6L180.98-19.6Q177.53-19.6 176.41-18.13 175.28-16.65 175.28-12.55 175.28-8.45 176.41-6.93 177.53-5.4 181.03-5.4L181.03-5.4 186.83-5.8 187.03-0.45Q181.68 0.6 178.88 0.6L178.88 0.6Q173.33 0.6 170.91-2.53 168.48-5.65 168.48-12.55 168.48-19.45 170.98-22.53 173.48-25.6 179.03-25.6ZM211.13-17.2L211.13-17.2 211.13-6.8Q211.23-5.6 211.53-5.13 211.83-4.65 212.78-4.45L212.78-4.45 212.58 0.6Q210.03 0.6 208.5 0.25 206.98-0.1 205.43-1.15L205.43-1.15Q201.83 0.6 198.08 0.6L198.08 0.6Q190.33 0.6 190.33-7.6L190.33-7.6Q190.33-11.6 192.48-13.28 194.63-14.95 199.08-15.25L199.08-15.25 204.43-15.65 204.43-17.2Q204.43-18.75 203.73-19.33 203.03-19.9 201.48-19.9L201.48-19.9 192.08-19.5 191.88-24.15Q197.23-25.6 202.05-25.6 206.88-25.6 209-23.6 211.13-21.6 211.13-17.2ZM204.43-11L199.88-10.6Q197.08-10.35 197.08-7.6 197.08-4.85 199.53-4.85L199.53-4.85Q201.43-4.85 203.68-5.45L203.68-5.45 204.43-5.65 204.43-11Z" opacity="1" transform="matrix(1,0,0,1,0,0)" fill="#35185a" class="undefined-text-0" data-fill-palette-color="primary" id="text-0"></path></svg></g></svg></g></svg></g></svg></g><g></g></svg></g></svg></g></svg></g></svg><rect width="320" height="360" fill="none" stroke="none" visibility="hidden"></rect></g></svg></g></svg>