<?xml version="1.0" encoding="utf-8"?>
<!-- Generator: Adobe Illustrator 25.4.1, SVG Export Plug-In . SVG Version: 6.00 Build 0)  -->
<svg version="1.0" id="katman_1" xmlns="http://www.w3.org/2000/svg" xmlns:xlink="http://www.w3.org/1999/xlink" x="0px" y="0px"
	 viewBox="0 0 177.8 124.6" style="enable-background:new 0 0 177.8 124.6;" xml:space="preserve">
<style type="text/css">
	.st0{fill:#1D1D1B;}
	.st1{fill:url(#SVGID_1_);}
	.st2{fill:url(#SVGID_00000004537771394079077930000014725349626842301584_);}
	.st3{fill:url(#SVGID_00000163047892290690272490000014580267185559401403_);}
</style>
<g>
	<path class="st0" d="M80.6,49.6c2.2,0,4.3,0.5,6.2,1.6c1.9,1.1,3.4,2.5,4.5,4.4c1.1,1.8,1.7,3.9,1.7,6.1c0,2.2-0.6,4.3-1.7,6.1
		c-1.1,1.8-2.6,3.2-4.5,4.3c-1.9,1-3.9,1.5-6.2,1.5h-9.6V49.6H80.6z M80.6,69.4c1.4,0,2.8-0.3,4-1c1.2-0.7,2.1-1.6,2.8-2.8
		c0.7-1.2,1.1-2.5,1.1-3.9c0-1.4-0.4-2.7-1.1-3.9c-0.7-1.2-1.6-2.2-2.8-2.9c-1.2-0.7-2.5-1-4-1h-5.1v15.5H80.6z"/>
	<path class="st0" d="M103.9,56c1.7,0,3.1,0.4,4.4,1.2c1.3,0.8,2.4,1.9,3.1,3.3c0.7,1.4,1.1,2.9,1.1,4.6c0,0.6,0,1.1-0.1,1.5H99.1
		c0.3,1.2,1,2.2,1.8,2.9c0.9,0.7,2,1,3.3,1c0.8,0,1.6-0.2,2.4-0.6c0.8-0.4,1.4-0.8,1.8-1.4l3.3,1.9c-0.8,1.2-1.8,2.1-3.1,2.8
		c-1.3,0.6-2.7,0.9-4.4,0.9c-1.8,0-3.5-0.4-4.9-1.2c-1.4-0.8-2.5-1.9-3.3-3.2c-0.8-1.4-1.1-2.9-1.1-4.6c0-1.7,0.4-3.2,1.1-4.6
		c0.8-1.4,1.9-2.5,3.2-3.2C100.6,56.4,102.2,56,103.9,56z M108.6,63.3c-0.2-1.1-0.7-2-1.5-2.6c-0.8-0.6-1.9-1-3.1-1
		c-0.9,0-1.7,0.2-2.4,0.5c-0.7,0.3-1.3,0.8-1.7,1.3c-0.4,0.6-0.7,1.1-0.7,1.8H108.6z"/>
	<path class="st0" d="M124.2,74.1c-2.4,0-4.3-0.5-6-1.6c-1.6-1.1-2.7-2.5-3.4-4.3l3.8-2.2c0.9,2.5,2.8,3.7,5.6,3.7
		c1.3,0,2.2-0.3,2.9-0.9c0.7-0.6,1-1.3,1-2.1c0-0.8-0.4-1.4-1.1-1.9c-0.7-0.5-2.1-1-4-1.5c-1.5-0.5-2.8-1-3.8-1.5
		c-1-0.6-1.9-1.3-2.5-2.2c-0.6-0.9-1-2.1-1-3.5c0-1.4,0.4-2.7,1.1-3.7c0.7-1.1,1.7-1.9,2.8-2.4c1.2-0.6,2.5-0.9,3.9-0.9
		c1.9,0,3.6,0.5,5.1,1.4c1.4,0.9,2.6,2.2,3.3,3.9l-3.9,2.2c-0.9-2-2.4-3.1-4.5-3.1c-1,0-1.8,0.3-2.4,0.8c-0.6,0.5-0.9,1.1-0.9,1.8
		c0,0.5,0.1,1,0.4,1.3c0.3,0.4,0.8,0.7,1.4,1c0.6,0.3,1.6,0.6,2.8,1c1.6,0.5,2.9,1,4,1.6c1.1,0.6,2,1.3,2.7,2.3
		c0.7,1,1.1,2.2,1.1,3.6c0,1.4-0.4,2.7-1.1,3.8c-0.7,1.1-1.8,1.9-3.1,2.5C127.3,73.8,125.8,74.1,124.2,74.1z"/>
	<path class="st0" d="M143.4,74.2c-1.6,0-3.1-0.4-4.5-1.2c-1.4-0.8-2.5-1.9-3.3-3.3c-0.8-1.4-1.2-2.9-1.2-4.5c0-1.6,0.4-3.1,1.2-4.5
		c0.8-1.4,1.9-2.5,3.3-3.3c1.4-0.8,2.9-1.2,4.5-1.2s3.1,0.4,4.5,1.2c1.4,0.8,2.5,1.9,3.3,3.3c0.8,1.4,1.2,2.9,1.2,4.5
		c0,1.6-0.4,3.1-1.2,4.5c-0.8,1.4-1.9,2.5-3.3,3.3C146.5,73.8,145,74.2,143.4,74.2z M143.3,69.9c0.9,0,1.7-0.2,2.4-0.6
		c0.7-0.4,1.3-1,1.8-1.8c0.4-0.7,0.7-1.5,0.7-2.4s-0.2-1.7-0.7-2.4c-0.4-0.7-1-1.3-1.8-1.8c-0.7-0.4-1.5-0.7-2.4-0.7
		s-1.7,0.2-2.4,0.7c-0.7,0.4-1.3,1-1.8,1.8c-0.4,0.7-0.6,1.5-0.6,2.4s0.2,1.7,0.6,2.4c0.4,0.7,1,1.3,1.8,1.8
		C141.6,69.7,142.4,69.9,143.3,69.9z"/>
	
		<linearGradient id="SVGID_1_" gradientUnits="userSpaceOnUse" x1="33.1492" y1="61.5973" x2="44.1119" y2="35.1214" gradientTransform="matrix(1 0 0 -1 0 113.7593)">
		<stop  offset="0" style="stop-color:#0057FF"/>
		<stop  offset="1" style="stop-color:#00A3FF"/>
	</linearGradient>
	<path class="st1" d="M25.4,43.9v9.2l24.2,13.5L25.4,80.7h20c6.4,0,11.5-4.5,11.5-10.1v-8.3L25.4,43.9z"/>
	
		<linearGradient id="SVGID_00000016041871508329966770000005725544454735800209_" gradientUnits="userSpaceOnUse" x1="38.661" y1="60.0106" x2="59.0548" y2="65.3977" gradientTransform="matrix(1 0 0 -1 0 113.7593)">
		<stop  offset="0" style="stop-color:#0283FF"/>
		<stop  offset="1" style="stop-color:#01C2FF"/>
	</linearGradient>
	<path style="fill:url(#SVGID_00000016041871508329966770000005725544454735800209_);" d="M25.4,43.9l31.5,18.4V54
		c0-5.6-5.2-10.1-11.5-10.1H25.4z"/>
	
		<linearGradient id="SVGID_00000122678697592991862380000002590553002142912152_" gradientUnits="userSpaceOnUse" x1="31.2818" y1="36.4545" x2="59.8438" y2="74.3542" gradientTransform="matrix(1 0 0 -1 0 113.7593)">
		<stop  offset="0" style="stop-color:#0157FF"/>
		<stop  offset="1" style="stop-color:#00FFFF"/>
	</linearGradient>
	<path style="fill:url(#SVGID_00000122678697592991862380000002590553002142912152_);" d="M42,62.3l-16.6,9.2v9.2l24.2-14.2L42,62.3
		z"/>
</g>
</svg>
